PathFileType	4	(X/Y/Z)	Kaydara	
DataRate	CameraRate	NumFrames	NumMarkers	Units	OrigDataRate	OrigDataStartFrame	OrigNumFrames	
240.00	240.00	4	72	mm	240.00	267	355	
Frame#	Time	Hips			RightUpLeg			RightLeg			RightFoot			RightFoot_End			LeftUpLeg			LeftLeg			LeftFoot			LeftFoot_End			Spine			Spine1			Spine2			Spine3			Neck			Head			Head_End			RightShoulder			RightArm			RightForeArm			RightHand			RightHandThumb1			RightHandThumb2			RightHandThumb3			RightHandThumb3_End			RightInHandIndex			RightHandIndex1			RightHandIndex2			RightHandIndex3			RightHandIndex3_End			RightInHandMiddle			RightHandMiddle1			RightHandMiddle2			RightHandMiddle3			RightHandMiddle3_End			RightInHandRing			RightHandRing1			RightHandRing2			RightHandRing3			RightHandRing3_End			RightInHandPinky			RightHandPinky1			RightHandPinky2			RightHandPinky3			RightHandPinky3_End			LeftShoulder			LeftArm			LeftForeArm			LeftHand			LeftHandThumb1			LeftHandThumb2			LeftHandThumb3			LeftHandThumb3_End			LeftInHandIndex			LeftHandIndex1			LeftHandIndex2			LeftHandIndex3			LeftHandIndex3_End			LeftInHandMiddle			LeftHandMiddle1			LeftHandMiddle2			LeftHandMiddle3			LeftHandMiddle3_End			LeftInHandRing			LeftHandRing1			LeftHandRing2			LeftHandRing3			LeftHandRing3_End			LeftInHandPinky			LeftHandPinky1			LeftHandPinky2			LeftHandPinky3			LeftHandPinky3_End			
		X1	Y1	Z1	X2	Y2	Z2	X3	Y3	Z3	X4	Y4	Z4	X5	Y5	Z5	X6	Y6	Z6	X7	Y7	Z7	X8	Y8	Z8	X9	Y9	Z9	X10	Y10	Z10	X11	Y11	Z11	X12	Y12	Z12	X13	Y13	Z13	X14	Y14	Z14	X15	Y15	Z15	X16	Y16	Z16	X17	Y17	Z17	X18	Y18	Z18	X19	Y19	Z19	X20	Y20	Z20	X21	Y21	Z21	X22	Y22	Z22	X23	Y23	Z23	X24	Y24	Z24	X25	Y25	Z25	X26	Y26	Z26	X27	Y27	Z27	X28	Y28	Z28	X29	Y29	Z29	X30	Y30	Z30	X31	Y31	Z31	X32	Y32	Z32	X33	Y33	Z33	X34	Y34	Z34	X35	Y35	Z35	X36	Y36	Z36	X37	Y37	Z37	X38	Y38	Z38	X39	Y39	Z39	X40	Y40	Z40	X41	Y41	Z41	X42	Y42	Z42	X43	Y43	Z43	X44	Y44	Z44	X45	Y45	Z45	X46	Y46	Z46	X47	Y47	Z47	X48	Y48	Z48	X49	Y49	Z49	X50	Y50	Z50	X51	Y51	Z51	X52	Y52	Z52	X53	Y53	Z53	X54	Y54	Z54	X55	Y55	Z55	X56	Y56	Z56	X57	Y57	Z57	X58	Y58	Z58	X59	Y59	Z59	X60	Y60	Z60	X61	Y61	Z61	X62	Y62	Z62	X63	Y63	Z63	X64	Y64	Z64	X65	Y65	Z65	X66	Y66	Z66	X67	Y67	Z67	X68	Y68	Z68	X69	Y69	Z69	X70	Y70	Z70	X71	Y71	Z71	X72	Y72	Z72	

267	1.108	3921.0129	906.651	56.2195	3934.950222170615	865.3928312594231	-16.79319483608258	3865.021506042443	456.7024573079689	-70.77471186225483	3952.3587046532552	98.41580737556984	-187.79822257439372	3879.5879839391605	18.426882438445897	-30.213359512183192	3913.6001032180693	918.9655318522105	141.17482848590132	3861.1036226187507	518.4362693623484	251.04128825844995	3775.42309510857	88.34984465576474	291.66130236677213	3655.9963634893775	-0.7190220693662558	172.38745147245697	3891.033059730197	1036.732486795329	5.048818921822694	3841.679362576713	1109.283535628533	-36.29173337901419	3784.3085612388036	1179.865599033742	-79.57989970125138	3720.7194948883734	1238.859307845783	-121.23879473912962	3652.103588723316	1301.543445180579	-165.07898315699308	3588.9629093456842	1358.85222152994	-203.77820894252793	3464.5960889740054	1450.8389314417982	-239.7063882470027	3676.626638042547	1267.4208313046365	-170.70147916851624	3669.8404000320857	1222.540964465989	-231.21813813576728	3674.752829602641	1065.2787860566607	-123.54348596586296	3661.362917725823	999.287363492728	-103.2562406365615	3670.742225940728	1016.2128648532278	-113.84406371779977	3672.137354960057	1016.3690052174414	-114.62179533162804	3672.279736748691	1013.4998865081413	-113.70374959914881	3671.68909016354	1008.560548216576	-111.68971767139207	3669.3223795655313	1008.0496592150604	-110.25781896401737	3675.4139276465567	1006.2433943725284	-112.62143490194681	3675.9565859955123	999.8654027486131	-110.66169060325362	3674.4677207996224	995.6551638974491	-108.47036809541456	3672.003540221516	992.0050625532701	-106.00032194662758	3666.6794117161216	999.769835935977	-106.03418495226494	3671.1923989691713	993.530959745937	-106.05604887294324	3671.411434977945	985.4782602387563	-103.34810928910505	3669.436124381048	979.8742445171015	-100.43108529386475	3666.652821285329	975.6253800643527	-97.59555900943397	3664.690033763382	993.9984039272995	-103.01740231751123	3667.105148176704	983.4912340684585	-100.49875281341079	3666.9072245046627	975.364750079479	-97.55611187908482	3664.7953844509375	969.3709652794796	-94.43312383083473	3662.08051812126	965.0971969646704	-91.62045103867818	3661.958162413253	987.1454007089287	-99.25505353358153	3662.6028937214264	973.390809863801	-94.71862658639132	3661.8269968411373	965.2008287453579	-91.46444775824848	3659.987949328209	960.0150120824351	-88.75222357171525	3657.411135948188	955.7607258342448	-86.0107028745327	3673.659409431666	1295.020572663863	-129.5561551552604	3687.110983143189	1314.0245704431434	-42.14350575906422	3739.9174220635105	1105.4490088216567	-66.27734084724123	3703.461799029552	960.2159426943692	-54.84974623949201	3695.480623689744	973.8680954794744	-60.726721017346364	3694.9751544443748	967.1364719699434	-65.11184423796313	3696.061689487138	959.2881382374482	-67.7070316320224	3698.198127476414	950.0416571292438	-69.47819208616616	3699.5096936278396	964.9952177256911	-59.71749466655192	3700.5183265481537	955.3627215506577	-65.04182936632864	3703.3326658122387	942.2290287781642	-68.23647748603109	3704.991764417011	933.8560455881716	-69.90277406740621	3706.3039060135934	926.7855813384105	-71.06624237283015	3703.4876059314643	956.4289786931581	-58.26054912530016	3706.62244939752	942.4020814408414	-62.66583103188541	3710.2176961260093	926.9635272673031	-65.9416774205011	3712.470909151061	916.3305735231907	-67.85115777513072	3714.0289286226603	908.335940458547	-69.07517747341716	3706.26041878098	950.6654519037828	-57.09859627257232	3711.4422084411817	933.2163759759436	-60.04744257992136	3715.1068610580073	918.6501567094823	-62.68091155072479	3717.562265495764	907.8043979243428	-64.4049826878609	3719.1608296521736	900.008111166424	-65.50005876830687	3709.520323564185	943.9652245044774	-55.57956050431589	3716.2433329300957	923.9705980579546	-57.36035333524407	3719.983792078716	910.6506891317442	-59.1102658139068	3722.164639130274	901.9387707005033	-60.19421217039276	3723.8050734357034	894.5715582725559	-61.064362141504674
268	1.113	3921.0129	906.651	56.2195	3934.265634089559	865.1269009330003	-16.8450197422534	3864.0479459533167	456.48351347798484	-70.80592524459743	3951.9532338547083	98.32120720930286	-187.98630649814206	3879.2392216793623	18.26201747760682	-30.410920568096916	3914.2484655040244	919.2345021521668	141.25400591870314	3861.5596354945083	518.7211837241233	251.1104111846838	3775.6550473789143	88.63007716488778	291.4544624005657	3656.2867286762194	-0.5316456089655441	172.1837681698718	3891.2130867885535	1036.728492333839	4.932192978975605	3841.82614119891	1109.304569273953	-36.33185694720413	3784.3901804667407	1179.9119737396402	-79.50128714973857	3720.6956747194226	1238.9262814068484	-120.98050008130203	3651.971105820839	1301.631521271929	-164.62990461437474	3588.7371497185645	1358.959287695849	-203.15580262965932	3464.3845457698394	1451.0204700084787	-238.91648518742412	3676.362259054389	1267.3984845350046	-170.290728852712	3671.3996900534057	1224.3939143294288	-231.69225259257132	3678.0906308805875	1067.8719634092388	-122.86178649159723	3662.8658283158884	1002.315847746963	-102.65427583156007	3672.886964597466	1019.5484871774242	-113.19818303409426	3674.750840066374	1019.3879458280303	-114.5801946220221	3675.075966963883	1016.2356055181236	-114.13300684497322	3674.514743582238	1011.006533179666	-112.55431384260906	3670.988772799227	1011.2358023060158	-109.73800038229136	3676.8931148122324	1009.234213177373	-112.62619390656293	3677.423769441507	1002.4689952950457	-111.29472582844303	3676.1239368942706	997.9462979151992	-109.55702104953076	3673.948760583472	993.9891966866965	-107.50494177282829	3667.9671286070247	1002.7803425978873	-105.64471170655149	3672.092660748946	996.2560224159024	-106.24866174894478	3672.2493877823467	987.7579271504352	-104.24212288764478	3670.4785243333386	981.7659739990752	-101.87996634644442	3667.9999645214757	977.1758647454465	-99.50546394279753	3665.712815498252	996.8919107549123	-102.70439043586967	3667.5443394906642	986.0335155771811	-100.76722281058136	3667.242443258519	977.495889236336	-98.45120885418196	3665.3014347594312	971.1157283281475	-95.87155115511219	3662.860606640466	966.5153316631912	-93.49620273328193	3662.6981691638575	989.8931511093983	-99.03262617076892	3662.625938004871	975.7335528384856	-95.07802445275804	3661.6918645050864	967.1800812415195	-92.3469502317293	3659.9411808570676	961.695866585339	-90.04134798830326	3657.5862637472865	957.142702297488	-87.69316253663231	3673.739484853608	1295.2078331048574	-129.20214168207409	3687.8931777447656	1314.8587152334712	-41.93303317799283	3739.6752780190927	1106.0179220866005	-65.45410483406039	3701.4566738327558	960.8536867289118	-54.41982924394794	3693.6522268081185	974.6326544066246	-60.07819156066479	3693.323363448881	967.9887292634586	-63.90341840737459	3694.4917520116373	960.1776353534023	-66.0770767162129	3696.661237280774	950.941809984207	-67.46977834467451	3697.5385180634357	965.6837408474091	-58.95520384550086	3698.4964191587055	956.0501243310275	-63.56925241850012	3701.33706283899	942.9275842209727	-66.16472859758451	3703.083776822337	934.5875855321283	-67.48182120608786	3704.5165065551087	927.5619949357506	-68.37196992910161	3701.4092434998843	957.053284368513	-57.43200110265873	3704.4366092152213	942.9905556548679	-61.108682619507064	3708.046657516637	927.5557160221957	-63.72414390759206	3710.3989046361785	916.9585001920651	-65.20916956070415	3712.085626326353	909.0109947328363	-66.132595840178	3704.1067180249684	951.2441395651373	-56.24208019964158	3709.1241415226277	933.7225404259746	-58.51577405260999	3712.787665290893	919.1509771247507	-60.568074138813294	3715.331146012603	908.3351322757302	-61.87976489300274	3717.0471923423597	900.5809975836132	-62.690804777163585	3707.2883878707858	944.4935507536741	-54.70573932724548	3713.809357782201	924.4004287004054	-55.85879438093353	3717.5277490637623	911.0631692789813	-57.137570287723946	3719.762601077355	902.3667477274931	-57.917939870935115	3721.501213468434	895.0332358164668	-58.53487675327959
269	1.117	3921.0129	906.651	56.2195	3933.5751308571544	864.8559966254793	-16.894763767599652	3863.1090841182086	456.2494565650572	-70.81841182005446	3951.584269836991	98.21055346055743	-188.15924366353087	3878.928749964103	18.082249712509583	-30.591889125450063	3914.9028614318313	919.5093043282693	141.3328745525266	3862.0367974827063	519.0095021525154	251.17352137748287	3775.9033554762595	88.91504401429164	291.24864560098877	3656.5914799148154	-0.33705797526778114	171.98107665168826	3891.3927496630613	1036.7208375041587	4.807642934130387	3841.9741597578695	1109.32700372804	-36.37268417711781	3784.475361884753	1179.9675504894697	-79.41303846307889	3720.6782984428733	1239.0140110896702	-120.69865787290315	3651.847775127605	1301.7523147340385	-164.1423103665916	3588.524152889814	1359.1115472843367	-202.480374611299	3464.181600898316	1451.2499565968883	-238.05042650084184	3676.1012090081695	1267.4068858736248	-169.8454598684566	3672.6401792774104	1225.9163433916501	-232.04903923707332	3681.1397884086364	1069.9975160527	-122.15782147881241	3663.4967220231515	1004.9977307227184	-101.87537553648865	3674.14982273662	1022.4948207662085	-112.4452562072562	3676.3562463486064	1021.9925611596432	-114.43353958853312	3676.7698585603043	1018.5473954724795	-114.4367617344033	3676.154024189369	1013.0272825231768	-113.25768157300601	3671.7589825768328	1014.0570378209003	-109.03966916772707	3677.374582150118	1011.8602265887474	-112.36733293685525	3677.7720657384634	1004.7066589885056	-111.60280835216221	3676.5712844724458	999.8637616414402	-110.30382506424391	3674.600751585438	995.5885019382246	-108.67305549437259	3668.3424556859877	1005.4471820423335	-105.02019995519501	3671.972745556405	998.649006682018	-106.09265065633979	3671.933073866604	989.7070905920771	-104.7134012284782	3670.2571998511507	983.3192040993551	-102.88469258542474	3667.990640524622	978.3762940239582	-100.97319559439332	3665.8147996780413	999.4568174395916	-102.11843801482306	3666.960155233807	988.2708474627673	-100.62765071801746	3666.4356647612253	979.3262951416148	-98.8665046539354	3664.558978447784	972.5535556635564	-96.80571238131719	3662.3045469204226	967.6163807183525	-94.86774877936028	3662.5070769624963	992.329164939076	-98.49712900367045	3661.618929090594	977.7968603030687	-94.97520727182246	3660.4294070277833	968.8876075143759	-92.69919029453928	3658.688293978083	963.1025667441393	-90.77724456498994	3656.477001073901	958.2427394613976	-88.81950108400699	3673.8329027455247	1295.4216767665243	-128.8156847656401	3688.6865575003308	1315.7420854047061	-41.7060157262305	3739.389267429604	1106.6337696675146	-64.56966324546356	3699.336122228203	961.5288860181258	-53.895981167620754	3691.7299361637783	975.5148580488764	-59.28685127349424	3691.577621710453	969.0223709740377	-62.51642518708908	3692.8266446691923	961.2843994868815	-64.24242461978244	3695.0271517831025	952.0818673364971	-65.2338330339313	3695.4733789483344	966.4668716210338	-58.03853280520441	3696.399519809913	956.8875153190447	-61.856959878949695	3699.26800988703	943.8141528355427	-63.80819330694262	3701.0963861648033	935.5331277153869	-64.76354118311727	3702.6401144654455	928.5755063239995	-65.38043191989125	3699.23249492793	957.7471115824608	-56.44938122515665	3702.168498274574	943.6889989562263	-59.314391455791466	3705.794371071835	928.2958762943126	-61.220621808030636	3708.2381534509204	917.764078357003	-62.26622374661505	3710.0429306726523	909.8881569586816	-62.889202304917106	3701.8511368355967	951.8731728823765	-55.23371737583348	3706.7159384347015	934.2985382924753	-56.759243801037854	3710.378524030677	919.7511232352243	-58.188276373522	3713.002475635816	908.9918928337138	-59.07340056729464	3714.8258171832745	901.3019917213571	-59.600660892639	3704.949093113729	945.0488269239324	-53.68645017686135	3711.2758079029586	924.8605458593563	-54.14813199942163	3714.9711384834986	911.5238031508349	-54.923121929547605	3717.2538938240937	902.8595728629147	-55.390080798247354	3719.0813415706757	895.5777215755764	-55.75432754668815
270	1.121	3921.0129	906.651	56.2195	3932.8967468670526	864.5861245126481	-16.945653388498098	3862.244172784949	456.0015254109473	-70.80743053082804	3951.2890204091573	98.0849638116792	-188.31365708258065	3878.691941212357	17.891007582854755	-30.75254254138556	3915.5466785847248	919.7837233314177	141.41344462152793	3862.5337550055287	519.2953847991306	251.24048953531212	3776.1639515614465	89.19959530894718	291.05499051011486	3656.908117324041	-0.14034701375288608	171.78900475509687	3891.5651965030324	1036.7102160594327	4.680588554766606	3842.1165131876974	1109.3513267233416	-36.40892707218489	3784.5584584963253	1180.033109524245	-79.310782172347	3720.6648185426257	1239.1247493286403	-120.39112366802628	3651.7341474362647	1301.9095311076458	-163.61641933666147	3588.3274500729535	1359.3144171594845	-201.75412167769855	3463.988245246749	1451.5286657661322	-237.11282788849994	3675.8435938339035	1267.449419084962	-169.36533317422516	3673.4597404614806	1227.0179649808085	-232.22945857041873	3683.6985924183673	1071.5573248249038	-121.39996977670334	3663.141177399414	1007.2583810042503	-100.82134457625284	3674.382742094353	1024.970194033545	-111.48980817929548	3676.7837995104137	1024.1206822331321	-114.04670059956577	3677.183953680328	1020.3897557490494	-114.44882254502062	3676.4294329685877	1014.593831904347	-113.60478556334178	3671.5093686068662	1016.4403723528302	-108.05840027599726	3676.744574857185	1014.0699339556993	-111.7044536604667	3676.8901361654107	1006.5511491791215	-111.40364980566136	3675.690649780311	1001.3963124821395	-110.49879531189113	3673.8277064305207	996.8056026538436	-109.26563419225806	3667.701430625294	1007.705450137022	-104.04730130194847	3670.748978177153	1000.6703446715647	-105.43475809504821	3670.384013253312	991.3136600564591	-104.56189464188628	3668.6855185411423	984.5416345262987	-103.20886753034023	3666.5249253221527	979.2497759506003	-101.73251396093637	3664.9057701227125	1001.6333164977588	-101.14095175421058	3665.292773776796	990.1703480822329	-99.92153766398768	3664.4341779463048	980.8480279447698	-98.60167179639288	3662.5088121638196	973.6961237197617	-96.9996660098167	3660.3412879925068	968.4267580996685	-95.4708244495393	3661.3094707830683	994.3994373634156	-97.52385142950502	3659.543779583624	979.5547731868397	-94.24555509297151	3658.0111263621443	970.3188523194507	-92.3215968018314	3656.1979395396756	964.2455578867854	-90.73366071400716	3654.0425881919455	959.0847361767234	-89.13797069052453	3673.938589035592	1295.6651530427941	-128.39595242010887	3689.4836812606536	1316.6734760821532	-41.45862757630306	3739.092336658653	1107.2996716599553	-63.599667431736854	3697.150238425215	962.2486606529243	-53.16051220660386	3689.7567834138363	976.5211079901886	-58.24260175189882	3689.7803563169546	970.2410783904571	-60.860577058281734	3691.1120336626086	962.6110937098867	-62.12755359430083	3693.34736870994	953.4643930222443	-62.70797336546183	3693.3703043822406	967.3545935285604	-56.86078915045615	3694.3040332751393	957.890308911932	-59.8219791967396	3697.213294842516	944.9052212088221	-61.104495981295145	3699.1183592301068	936.7072041821532	-61.6979782879388	3700.7601934572	929.8372617089605	-62.05169282322078	3697.022501211869	958.5225092698654	-55.20800271425495	3699.9080623605664	944.5158754137566	-57.202490060712364	3703.5643366776453	929.2038937067521	-58.37331177193363	3706.0938800772196	918.7649562026191	-58.979597714284736	3708.0027162508795	910.98142928712	-59.31328311237096	3699.5647909273744	952.5659557239043	-53.96960220098427	3704.316296314386	934.9647992569722	-54.69624054031357	3707.9910664099552	920.4725103145399	-55.47982385441786	3710.6901407840105	909.794567691301	-55.93882255627763	3712.6077222229096	902.1876155270796	-56.19295113596746	3702.579406637915	945.6455910220054	-52.41824070069995	3708.748751475774	925.3727475770826	-52.14554686772171	3712.432007743848	912.0559322654956	-52.400201557784165	3714.758996743233	903.4392801296136	-52.55465817502698	3716.6638482494327	896.2241662581381	-52.67598481307096
